<svg version="1.2" xmlns="http://www.w3.org/2000/svg" viewBox="0 0 300 300" width="300" height="300"><style>.a{fill:#1c94a7}</style><path fill-rule="evenodd" class="a" d="m263.8 96.8v59.1c0 18.4-15 33.3-33.4 33.3h-12.2c-4.6 0-8.3-3.7-8.3-8.3v-2h-122.6v2c0 4.6-3.7 8.3-8.3 8.3h-12.2c-18.4 0-33.4-14.9-33.4-33.3v-59.1c0-18.3 15-33.2 33.4-33.2h163.6c18.4 0 33.4 14.9 33.4 33.2zm-56.2 105.1v40.6c0 4.6-3.8 8.3-8.4 8.3-4.5 0-8.3-3.7-8.3-8.3v-40.6c0-4.6 3.8-8.3 8.3-8.3 4.6 0 8.4 3.7 8.4 8.3zm39.5-105.1c0-9.2-7.5-16.6-16.7-16.6h-163.6c-9.2 0-16.8 7.4-16.8 16.6v59.1c0 9.2 7.6 16.7 16.8 16.7h3.9v-2c0-4.6 3.7-8.3 8.3-8.3h139.2c4.6 0 8.3 3.7 8.3 8.3v2h3.9c9.2 0 16.7-7.5 16.7-16.7zm-10.2 42.8c0 4.6-3.7 8.3-8.3 8.3h-10.5c-4.6 0-8.3-3.7-8.3-8.3 0-4.6 3.7-8.3 8.3-8.3h10.5c4.6 0 8.3 3.7 8.3 8.3zm-62.7 62.3v40.6c0 4.6-3.8 8.3-8.4 8.3-4.6 0-8.3-3.7-8.3-8.3v-40.6c0-4.6 3.7-8.3 8.3-8.3 4.6 0 8.4 3.7 8.4 8.3zm-66.9 0v40.6c0 4.6-3.7 8.3-8.3 8.3-4.6 0-8.3-3.7-8.3-8.3v-40.6c0-4.6 3.7-8.3 8.3-8.3 4.6 0 8.3 3.7 8.3 8.3zm33.4 0v40.6c0 4.6-3.7 8.3-8.3 8.3-4.5 0-8.3-3.7-8.3-8.3v-40.6c0-4.6 3.8-8.3 8.3-8.3 4.6 0 8.3 3.7 8.3 8.3z"/></svg>