<?xml version="1.0" encoding="utf-8"?>
<!-- Generator: Adobe Illustrator 26.3.1, SVG Export Plug-In . SVG Version: 6.00 Build 0)  -->
<svg version="1.1" id="Layer_1" xmlns="http://www.w3.org/2000/svg" xmlns:xlink="http://www.w3.org/1999/xlink" x="0px" y="0px"
	 viewBox="0 0 276.21 64.71" style="enable-background:new 0 0 276.21 64.71;" xml:space="preserve">
<style type="text/css">
	.st0{enable-background:new    ;}
	.st1{fill:#FFFFFF;}
</style>
<g id="Layer_1_00000034807066383908551420000008688835318693977252_">
	<g class="st0">
		<path class="st1" d="M9.29,0.39h6V20.3c0,2.58-0.71,4.66-2.14,6.23c-1.43,1.57-3.3,2.36-5.61,2.36c-1.67,0-3.17-0.49-4.49-1.48
			C1.73,26.43,0.71,24.92,0,22.89l4.41-3.34v0.09c0.03,0.01,0.17,0.33,0.43,0.94c0.26,0.61,0.58,1.17,0.97,1.66s0.82,0.74,1.27,0.74
			c0.67,0,1.21-0.28,1.61-0.83c0.4-0.56,0.6-1.3,0.6-2.23V0.39z"/>
		<path class="st1" d="M35.61,0.39h4.69L51.76,28.5h-6.1l-2.25-5.52H32.62l-2.2,5.52h-6.07L35.61,0.39z M37.96,9.59l-3.31,8.29h6.68
			L37.96,9.59z"/>
		<path class="st1" d="M55.52,0.39h6.13l7.11,18.69l7.12-18.69h6.14L71.38,28.5h-5.26L55.52,0.39z"/>
		<path class="st1" d="M97.66,0.39h4.7l11.45,28.12h-6.1l-2.25-5.52H94.67l-2.2,5.52H86.4L97.66,0.39z M100.01,9.59l-3.3,8.29h6.68
			L100.01,9.59z"/>
		<path class="st1" d="M139.6,2.93l-3.77,4.13c-1.98-1.17-3.41-1.76-4.28-1.76c-0.67,0-1.25,0.25-1.74,0.76
			c-0.49,0.51-0.73,1.11-0.73,1.81c0,1.38,1.26,2.58,3.77,3.6c1.84,0.79,3.23,1.5,4.18,2.13s1.73,1.52,2.37,2.64
			c0.64,1.13,0.95,2.35,0.95,3.66c0,2.41-0.97,4.51-2.92,6.3c-1.95,1.79-4.25,2.68-6.91,2.68c-2.91,0-5.79-1.37-8.63-4.11l3.98-4.65
			c1.79,1.84,3.46,2.76,5.01,2.76c0.73,0,1.43-0.32,2.1-0.97c0.67-0.65,1.01-1.33,1.01-2.04c0-1.47-1.55-2.76-4.65-3.88
			c-1.77-0.65-3.03-1.25-3.77-1.81s-1.37-1.38-1.87-2.46c-0.51-1.08-0.76-2.18-0.76-3.31c0-2.5,0.81-4.53,2.44-6.08
			c1.63-1.56,3.75-2.33,6.38-2.33C134.88,0,137.49,0.98,139.6,2.93z"/>
		<path class="st1" d="M171.45,1.88v6.85c-3.04-1.83-5.7-2.74-7.99-2.74s-4.11,0.79-5.48,2.36c-1.37,1.57-2.06,3.68-2.06,6.34
			c0,2.51,0.72,4.52,2.16,6.03c1.44,1.51,3.37,2.26,5.78,2.26c2.11,0,4.64-0.85,7.58-2.55v6.81c-3.3,1.1-6.05,1.65-8.24,1.65
			c-3.78,0-7-1.39-9.64-4.17c-2.64-2.78-3.96-6.16-3.96-10.16c0-4.07,1.35-7.51,4.04-10.33c2.69-2.82,5.96-4.23,9.82-4.23
			C165.95,0,168.61,0.63,171.45,1.88z"/>
		<path class="st1" d="M181.69,0.39h9.26c2.82,0,5.04,0.74,6.68,2.23s2.46,3.49,2.46,6.01c0,1.44-0.38,2.94-1.13,4.5
			s-2.13,2.77-4.15,3.66l7.87,11.72h-6.96l-7.28-10.88h-0.69V28.5h-6.06L181.69,0.39L181.69,0.39z M187.8,5.4v7.32h1.31
			c3.17,0,4.75-1.29,4.75-3.88c0-1.06-0.41-1.89-1.24-2.52c-0.82-0.62-1.97-0.93-3.43-0.93H187.8z"/>
		<path class="st1" d="M212.77,0.39h6.06V28.5h-6.06V0.39z"/>
		<path class="st1" d="M230.34,0.39h9.62c2.58,0,4.67,0.75,6.25,2.26c1.58,1.51,2.38,3.49,2.38,5.94c0,1.61-0.39,3.14-1.17,4.59
			c-0.78,1.45-1.95,2.53-3.52,3.24c-1.57,0.71-2.91,1.08-4.03,1.11l-3.51,0.09V28.5h-6.02L230.34,0.39L230.34,0.39z M236.27,5.44
			v7.19h2.36c1.01,0,1.88-0.36,2.6-1.09c0.72-0.73,1.08-1.59,1.08-2.59c0-1.14-0.41-2.03-1.22-2.66c-0.81-0.63-1.97-0.94-3.47-0.94
			L236.27,5.44z"/>
		<path class="st1" d="M257.31,0.39h18.91v5.97h-6.45V28.5h-6.06V6.36h-6.4L257.31,0.39L257.31,0.39z"/>
	</g>
	<g class="st0">
		<path class="st1" d="M71.6,47.08h2.33v6.56h8.15v-6.56h2.3v17.05h-2.3v-8.19h-8.15v8.19H71.6V47.08z"/>
		<path class="st1" d="M103.29,55.51c0-2.46,0.93-4.57,2.78-6.33c1.86-1.76,4.09-2.63,6.69-2.63c2.54,0,4.73,0.88,6.57,2.65
			s2.76,3.87,2.76,6.31c0,2.58-0.91,4.75-2.72,6.53c-1.82,1.78-4.04,2.67-6.69,2.67c-2.61,0-4.82-0.9-6.65-2.69
			C104.21,60.23,103.29,58.06,103.29,55.51z M119.62,55.62c0-1.88-0.68-3.46-2.04-4.75c-1.36-1.29-3.02-1.93-5-1.93
			c-1.88,0-3.5,0.66-4.84,1.97c-1.34,1.31-2.01,2.88-2.01,4.72c0,1.86,0.69,3.44,2.07,4.73c1.38,1.29,3.07,1.93,5.07,1.93
			c1.84,0,3.42-0.66,4.76-1.97S119.62,57.43,119.62,55.62z"/>
		<path class="st1" d="M139.47,47.08h10.43v2.33h-4.07v14.72h-2.3V49.41h-4.05L139.47,47.08L139.47,47.08z"/>
		<path class="st1" d="M168.25,47.08h9.45v2.33h-7.15v4.26h7.15v2.3h-7.15v5.86h7.15v2.3h-9.45V47.08z"/>
		<path class="st1" d="M196.71,47.08h2.3v14.75h5.55v2.3h-7.86V47.08z"/>
	</g>
</g>
<g id="Layer_2_00000004537450744694604410000002224335887920320954_">
</g>
</svg>
