<svg version="1.2" xmlns="http://www.w3.org/2000/svg" viewBox="0 0 300 300" width="300" height="300"><style>.a{fill:#1c94a7}</style><path fill-rule="evenodd" class="a" d="m263.7 119.9c-0.3 0.5-7.4 11.4-19.5 14.5v52.1c0 15.7-12.8 28.5-28.6 28.5h-131.6c-15.8 0-28.6-12.8-28.6-28.5v-52.1c-12.1-3.1-19.1-14-19.5-14.5-2.5-3.9-1.3-9 2.6-11.5 3.8-2.5 8.9-1.3 11.4 2.5 0.1 0.1 2.2 3.2 5.5 5.4v-25.1c0-21.7 60-31.8 86.1-32.4v-7.6h-8.5c-4.6 0-8.3-3.7-8.3-8.3 0-4.6 3.7-8.3 8.3-8.3h33.6c4.6 0 8.3 3.7 8.3 8.3 0 4.6-3.7 8.3-8.3 8.3h-8.5v7.6c32.2 0.5 86.1 11.4 86.1 32.4v25.1c3.3-2.2 5.5-5.4 5.5-5.4 2.5-3.8 7.6-4.9 11.5-2.5 3.8 2.5 4.9 7.6 2.5 11.5zm-36.1-4h-155.6v70.6c0 6.6 5.4 11.9 12 11.9h131.6c6.7 0 12-5.3 12-11.9zm0-23.6c-5-5.9-38.1-16.9-72-16.9h-11.5c-31.7 0-66.6 11.2-72.1 17.1v6.8h155.6zm19.1 164.3c0 4.6-3.8 8.3-8.3 8.3h-177.2c-4.5 0-8.3-3.7-8.3-8.3 0-4.6 3.8-8.3 8.3-8.3h22.4v-17.8c0-4.6 3.8-8.3 8.3-8.3 4.6 0 8.4 3.7 8.4 8.3v17.8h12.3v-11c0-4.6 3.7-8.4 8.3-8.4 4.6 0 8.3 3.8 8.3 8.4v11h12.3v-17.8c0-4.6 3.7-8.3 8.3-8.3 4.6 0 8.3 3.7 8.3 8.3v17.8h12.3v-11c0-4.6 3.7-8.4 8.3-8.4 4.6 0 8.4 3.8 8.4 8.4v11h12.3v-17.8c0-4.6 3.7-8.3 8.3-8.3 4.6 0 8.3 3.7 8.3 8.3v17.8h22.4c4.5 0 8.3 3.7 8.3 8.3z"/></svg>