<svg version="1.2" xmlns="http://www.w3.org/2000/svg" viewBox="0 0 300 300" width="300" height="300"><style>.a{fill:#1c94a7}</style><path fill-rule="evenodd" class="a" d="m267.4 119.8c-4.4 3.4-13.8 8.3-28 2.2-2.8-1.2-3.7-0.6-4-0.4-0.2 0.2-0.4 0.3-0.6 0.5 0.9 1.9 1.1 4.1 0.3 6.1-0.8 2.5-2.7 4.4-5 5.2-1.2 5.5-1.9 11.9-1.9 16.9 0.6 4.7 3.2 32.1-15.4 43.7-5.8 25.8-4.6 44.5 3.6 53.1 10.3 10.6 4 18.4 2.6 19.9-3.6 3.7-9.8 5.2-16.2 5.2-7.8 0-15.8-2.2-19.2-5.1-7.4-6.4-16.4-19.1-17.5-43.8-0.7-16.6-7.9-28.5-21.4-35.5-29.3-10.5-37.7-6.4-39.1-5.5q-0.9 0.6-1 1.2c0.1 0.5 0 0.3 0 1-0.1 0.8-1.4 20.7-20.8 37.9-10.9 9.7-2.4 21-1.4 22.3q0.5 0.6 0.9 1.4c2.9 5.7 2.8 16.5-9.2 22.9-7.2 3.8-13.2 2.8-16.9 1.2-8.2-3.4-14.5-12.5-19.1-27.9-6.5-21.2-1.1-35.2 2.1-43.6 0.7-1.9 1.7-4.5 1.8-5.4-0.2-3.2-2-7.8-4-12.8-3.7-9.5-8.4-21.4-6.3-35.2 0.7-4.6 1.9-12.1 6.7-19-4.8-5.6-11.7-15.9-14.9-31.9-0.8-4.5 2.1-8.8 6.6-9.7 4.5-0.9 8.9 2 9.8 6.5 2.5 12.9 7.8 20.7 11.1 24.4q2.8-1.4 6.2-2.5c26.6-8.6 52.9-4.9 72.1-2.2 9 1.2 16.8 2.3 22.1 1.8 8.2-0.7 18.5-8 28.2-17.1 0-2.5 1.2-5.1 3.4-6.7 1.5-1 3.1-1.5 4.8-1.5 6.2-6.8 11.8-13.8 15.8-19.5 21-29.1 30.9-25.2 34.1-23.9 7.7 3 8.5 11.7 8.2 18.6 4.8 2.8 10.9 8.1 12.9 16.7 1 4.1 9.4 9.1 13.6 10.6 3 1 5.1 3.6 5.7 6.8 0.9 5.4-2.7 16.8-10.7 23.1zm-53.4 9c-10.7-5.7-19.3-13.2-25-19.2-10.9 10-23.8 18.6-36.1 19.7-7.2 0.6-15.9-0.6-25.9-2-18.6-2.6-41.7-5.8-64.7 1.6-10.1 3.2-12.6 8.7-14.2 19-1.4 9.2 2.1 18 5.4 26.5 2.5 6.3 4.8 12.3 5.1 18.3 0.1 4.1-1.3 8-2.9 12-2.9 7.6-6.5 17-1.7 32.8 4.4 14.6 8.7 17 9.6 17.4 0.3 0.1 0.9 0.4 2.7-0.5 0.9-0.5 1.4-1 1.7-1.3-6.4-9.3-12.2-28.1 4.7-43.1 13-11.5 15-24.2 15.2-26.2 0-4.2 1.8-10.2 7.3-14.5 10.1-7.8 28.4-6.8 55.7 3.1q0.4 0.1 0.9 0.4c13.4 6.7 29.6 20.8 30.9 49.8 0.7 14.6 4.6 25.5 11.5 31.6 1.4 0.7 4.7 1.2 7.7 1.4-10.7-14-12.2-37.2-4.4-69.1 0.6-2.5 2.3-4.6 4.7-5.6 12.7-5.6 9.5-28.6 9.5-28.8q-0.1-0.6-0.1-1.2c0-3 0.1-12.5 2.4-22.1zm46.3-26.2c-6.4-3.5-15.4-9.9-17.7-19.5-1.2-5.1-8.2-7.7-8.2-7.7-3.8-1.3-6.2-5.1-5.6-9q0.2-1.5 0.3-2.8c-3.6 3.5-8.2 8.8-11.9 13.9-1.4 2.1-7.6 10.7-16.4 20.4 4.5 4.7 11.3 10.9 19.7 15.5 1.6-2.2 3.5-4.1 5.7-5.6 4-2.7 10.6-5 19.7-1.1 4.5 1.9 7.9 2.1 10.4 0.6 1.8-1.1 3.1-3 4-4.7zm-136.2-57c0-3.9 3.2-7.1 7.1-7.1 4 0 7.2 3.2 7.2 7.1 0 4-3.2 7.1-7.2 7.1-3.9 0-7.1-3.1-7.1-7.1zm40.8 35.6c0-3.9 3.2-7.1 7.1-7.1 3.9 0 7.1 3.2 7.1 7.1 0 4-3.2 7.2-7.1 7.2-3.9 0-7.1-3.2-7.1-7.2zm-21.4-15.8c0-3.9 3.2-7.1 7.1-7.1 4 0 7.2 3.2 7.2 7.1 0 3.9-3.2 7.1-7.2 7.1-3.9 0-7.1-3.2-7.1-7.1z"/></svg>