<svg version="1.2" xmlns="http://www.w3.org/2000/svg" viewBox="0 0 300 300" width="300" height="300"><style>.a{fill:#1c94a7}</style><path fill-rule="evenodd" class="a" d="m264.8 57.9v180.7c0 12.4-10 22.5-22.2 22.5h-15.5c-0.2 4.4-3.9 8-8.3 8h-26.7c-4.5 0-8.2-3.6-8.3-8h-68.4c-0.1 4.4-3.8 8-8.3 8h-26.7c-4.5 0-8.1-3.6-8.3-8h-15.5c-12.2 0-22.2-10.1-22.2-22.5v-180.7c0-12.3 10-22.4 22.2-22.4h186c12.2 0 22.2 10.1 22.2 22.4zm-16.7 0c0-3.2-2.5-5.8-5.5-5.8h-186c-3.1 0-5.6 2.6-5.6 5.8v180.7c0 3.3 2.5 5.9 5.6 5.9h186c3 0 5.5-2.6 5.5-5.9v-24.7c-4.4-0.3-7.9-3.9-7.9-8.3v-28.5c0-4.5 3.5-8.1 7.9-8.3v-41c-4.4-0.2-7.9-3.9-7.9-8.3v-28.5c0-4.5 3.5-8.1 7.9-8.3zm-155.7 66.6v47.5c0 4.6-3.7 8.3-8.3 8.3-4.6 0-8.3-3.7-8.3-8.3v-47.5c0-4.6 3.7-8.3 8.3-8.3 4.6 0 8.3 3.7 8.3 8.3zm114.6 23.8c0 20.9-17.1 38-38 38-21 0-38-17.1-38-38 0-21 17-38 38-38 20.9 0 38 17 38 38zm-16.6 0c0-11.8-9.6-21.4-21.4-21.4-11.8 0-21.4 9.6-21.4 21.4 0 11.8 9.6 21.3 21.4 21.3 11.8 0 21.4-9.5 21.4-21.3zm-9 0c0 6.8-5.5 12.4-12.4 12.4-6.9 0-12.5-5.6-12.5-12.4 0-6.9 5.6-12.5 12.5-12.5 6.9 0 12.4 5.6 12.4 12.5z"/></svg>