<svg version="1.2" xmlns="http://www.w3.org/2000/svg" viewBox="0 0 300 300" width="300" height="300"><style>.a{fill:#1c94a7}</style><path fill-rule="evenodd" class="a" d="m261.2 109.1v104.3c0 10.8-5.2 20.4-13.2 26.5l-3.7 26.6c-0.6 4.1-4.1 7.2-8.3 7.2h-179.9c-4.2 0-7.7-3.1-8.3-7.2l-3.7-26.6c-8-6.1-13.2-15.7-13.2-26.5v-104.3c0-18.4 14.9-33.4 33.4-33.4h116.1l-30.3-43.8c-2.7-3.8-1.7-9 2.1-11.6 3.7-2.6 8.9-1.6 11.5 2.1l31.8 45.9 31.7-45.9c2.6-3.7 7.8-4.7 11.6-2.1 3.8 2.6 4.7 7.8 2.1 11.6l-30.3 43.8h17.2c18.4 0 33.4 15 33.4 33.4zm-16.6 0c0-9.2-7.5-16.7-16.8-16.7h-163.5c-9.3 0-16.8 7.5-16.8 16.7v104.3c0 9.2 7.5 16.7 16.8 16.7h163.5c9.3 0 16.8-7.5 16.8-16.7zm-61.9 9.1v86.1c0 7.4-6.1 13.5-13.5 13.5h-94.2c-7.4 0-13.5-6.1-13.5-13.5v-86.1c0-7.4 6.1-13.4 13.5-13.4h94.2c7.4 0 13.5 6 13.5 13.4zm-16.6 3.2h-87.9v79.7h87.9zm66 53.1c4.5 4.6 7.1 10.7 7.1 17.1 0 6.5-2.6 12.6-7.1 17.2-4.8 4.7-11 7-17.2 7-6.2 0-12.4-2.3-17.1-7-4.6-4.6-7.1-10.7-7.1-17.2 0-6.4 2.5-12.5 7.1-17.1 9.4-9.4 24.8-9.4 34.3 0zm-1.8 72.2q-1.2 0.1-2.5 0.1h-163.5q-1.3 0-2.5-0.1l1.5 10.4h165.5zm-7.7-55c0-2-0.8-3.9-2.3-5.4-1.4-1.5-3.4-2.2-5.3-2.2-2 0-3.9 0.7-5.4 2.2-1.5 1.5-2.2 3.4-2.2 5.4 0 2 0.7 3.9 2.2 5.3 3 3 7.8 3 10.7 0 1.5-1.4 2.3-3.3 2.3-5.3zm-31.9-60.5c0-13.4 10.9-24.2 24.3-24.2 13.3 0 24.2 10.8 24.2 24.2 0 13.3-10.9 24.2-24.2 24.2-13.4 0-24.3-10.9-24.3-24.2zm16.7 0c0 4.1 3.4 7.5 7.6 7.5 4.2 0 7.6-3.4 7.6-7.5 0-4.2-3.4-7.6-7.6-7.6-4.2 0-7.6 3.4-7.6 7.6z"/></svg>